<?xml version="1.0" standalone="no"?>
<!DOCTYPE svg PUBLIC "-//W3C//DTD SVG 20010904//EN"
 "http://www.w3.org/TR/2001/REC-SVG-20010904/DTD/svg10.dtd">
<svg version="1.0" xmlns="http://www.w3.org/2000/svg"
 width="1024.000000pt" height="1024.000000pt" viewBox="0 0 1024.000000 1024.000000"
 preserveAspectRatio="xMidYMid meet">
<metadata>
Created by potrace 1.14, written by Peter Selinger 2001-2017
</metadata>
<g transform="translate(0.000000,1024.000000) scale(0.100000,-0.100000)"
fill="#000000" stroke="none">
<path d="M6500 10229 c-101 -17 -118 -21 -199 -45 -139 -42 -325 -138 -411
-212 -29 -24 -165 -159 -190 -188 -34 -39 -120 -169 -120 -182 0 -6 -3 -12 -8
-14 -9 -4 -63 -124 -87 -193 -9 -27 -20 -57 -23 -65 -3 -8 -6 -19 -6 -25 -1
-6 -26 -9 -61 -7 -125 7 -495 6 -605 -2 -63 -5 -127 -9 -142 -10 -16 0 -28 -3
-28 -6 0 -3 -15 -5 -33 -6 -31 -1 -108 -10 -157 -19 -14 -3 -41 -7 -60 -10
-234 -36 -638 -149 -822 -229 -20 -9 -43 -16 -52 -16 -9 0 -16 -5 -16 -12 0
-6 -3 -9 -6 -6 -7 8 -58 -14 -244 -104 -132 -64 -182 -91 -320 -172 -25 -15
-53 -29 -62 -33 -10 -3 -18 -9 -18 -13 0 -4 -13 -13 -30 -20 -16 -7 -30 -16
-30 -21 0 -5 -4 -9 -10 -9 -8 0 -104 -62 -135 -88 -5 -4 -32 -23 -60 -42 -27
-18 -52 -36 -55 -40 -3 -3 -25 -21 -50 -40 -45 -35 -67 -53 -100 -80 -9 -8
-36 -31 -60 -50 -23 -19 -61 -53 -84 -75 -24 -22 -52 -47 -62 -56 -32 -27
-256 -262 -309 -324 -27 -32 -60 -70 -72 -83 -13 -14 -23 -28 -23 -31 0 -3
-10 -17 -23 -31 -13 -14 -43 -52 -67 -85 -25 -33 -47 -62 -50 -65 -11 -10
-182 -272 -206 -315 -6 -11 -21 -38 -34 -60 -13 -22 -39 -69 -58 -105 -19 -36
-38 -69 -43 -74 -5 -6 -9 -18 -9 -28 0 -10 -4 -18 -10 -18 -5 0 -10 -4 -10 -9
0 -5 -19 -51 -43 -102 -49 -107 -82 -181 -83 -189 0 -3 -8 -23 -18 -45 -21
-47 -134 -385 -140 -418 -3 -12 -5 -22 -6 -22 -1 0 -3 -7 -5 -15 -2 -8 -15
-67 -30 -130 -29 -123 -33 -141 -40 -180 -13 -71 -38 -230 -41 -265 -3 -22 -6
-58 -9 -80 -16 -145 -20 -239 -20 -460 1 -248 7 -384 19 -403 3 -6 2 -13 -4
-17 -6 -4 -7 -13 -2 -23 5 -9 10 -37 11 -61 2 -24 5 -54 7 -65 3 -12 7 -37 9
-56 7 -53 30 -186 40 -230 3 -14 7 -36 10 -50 3 -14 9 -40 14 -58 5 -18 10
-35 10 -37 2 -23 67 -267 78 -295 4 -8 7 -17 7 -20 4 -16 60 -180 71 -205 6
-16 27 -66 45 -110 60 -147 167 -372 190 -400 7 -8 10 -15 6 -15 -3 0 4 -17
17 -37 44 -69 142 -233 152 -253 5 -11 13 -20 17 -20 5 0 8 -5 8 -11 0 -10 79
-124 160 -230 19 -26 44 -58 54 -73 11 -15 29 -37 40 -50 12 -13 30 -34 40
-47 32 -41 178 -203 199 -222 20 -17 20 -18 1 -53 -10 -19 -26 -43 -36 -53
-17 -19 -110 -207 -124 -251 -9 -29 -10 -31 -24 -90 -7 -25 -14 -52 -17 -60
-3 -8 -7 -26 -9 -40 -2 -14 -7 -53 -12 -87 -13 -94 -6 -283 14 -374 3 -13 7
-35 10 -49 5 -27 22 -86 31 -110 4 -8 7 -18 8 -22 2 -5 4 -10 5 -13 1 -3 4 -8
5 -12 9 -30 30 -77 56 -124 16 -30 32 -62 36 -71 3 -10 9 -18 14 -18 5 0 9 -7
9 -15 0 -8 5 -15 10 -15 6 0 10 -6 10 -12 0 -7 13 -27 28 -45 15 -17 35 -42
44 -55 19 -25 103 -110 158 -159 66 -58 300 -201 300 -183 0 4 6 2 13 -4 10
-8 140 -58 160 -61 4 0 8 -1 10 -2 71 -22 226 -37 347 -34 140 4 152 5 235 25
28 6 57 13 65 15 8 2 35 10 60 19 25 9 49 18 54 19 31 7 182 86 241 126 77 51
122 88 205 171 60 61 170 202 170 219 0 6 5 11 12 11 6 0 8 3 5 7 -4 3 -1 13
7 22 7 9 28 48 46 87 l34 70 58 -13 c32 -7 70 -15 85 -18 16 -2 71 -11 123
-19 86 -14 147 -22 235 -31 173 -19 488 -24 700 -10 72 4 149 8 172 9 24 1 43
3 43 7 0 3 10 6 23 6 61 4 213 27 317 48 14 3 39 8 55 10 17 3 37 8 45 10 8 2
26 6 40 9 119 22 504 142 615 191 17 7 80 34 140 60 61 26 155 70 210 98 55
29 103 51 108 49 4 -1 7 1 7 6 0 4 34 25 76 47 41 22 84 48 95 58 10 9 20 16
22 15 3 -3 169 101 202 127 11 9 54 40 95 70 41 30 80 57 85 62 6 4 33 26 60
48 56 44 86 69 122 103 13 12 25 22 27 22 13 0 264 247 360 354 93 104 186
214 186 220 0 4 8 14 18 24 18 19 56 68 82 107 8 12 51 76 96 141 45 66 89
133 98 149 9 17 28 48 42 70 14 22 27 48 31 58 3 9 10 17 16 17 6 0 7 3 4 6
-4 4 2 19 12 33 17 25 161 315 161 324 0 2 10 26 22 53 12 27 23 54 24 59 2 6
14 37 27 70 33 82 40 99 42 105 0 3 22 70 47 150 25 80 49 159 54 175 4 17 8
35 10 40 2 6 5 20 8 33 3 13 8 32 11 42 3 10 8 29 10 42 4 20 24 115 30 143 4
20 15 80 19 105 2 14 7 41 10 60 7 43 13 87 21 165 3 33 8 75 11 93 15 114 22
552 10 692 -14 180 -20 233 -42 380 -3 19 -6 46 -8 60 -1 14 -6 39 -10 55 -14
65 -21 98 -31 155 -3 19 -8 42 -11 50 -3 8 -8 26 -10 40 -9 47 -63 235 -94
325 -17 50 -32 95 -33 102 -2 7 -6 16 -10 19 -4 4 -7 17 -7 29 0 11 -4 25 -9
30 -5 6 -18 37 -31 70 -12 33 -26 65 -32 72 -6 7 -8 13 -4 13 4 0 -1 11 -10
25 -9 14 -14 25 -11 25 3 0 -35 80 -85 178 -49 97 -97 192 -106 210 -9 17 -20
32 -24 32 -4 0 -8 5 -8 12 0 6 -9 26 -20 42 -78 121 -205 312 -210 316 -3 3
-17 21 -30 40 -13 19 -27 37 -30 40 -3 3 -31 37 -61 76 -110 142 -337 382
-494 523 -33 29 -72 64 -87 77 -14 13 -29 24 -32 24 -3 0 -14 8 -24 18 -9 9
-32 28 -50 42 l-32 26 29 59 c27 55 75 188 86 239 2 12 7 32 10 46 20 85 26
357 11 450 -14 82 -49 204 -76 267 -16 34 -26 64 -24 66 3 2 -2 10 -11 17 -8
7 -15 18 -15 26 0 17 -114 188 -160 239 -53 60 -131 134 -170 164 -19 14 -37
28 -40 31 -27 27 -177 111 -252 141 -29 11 -64 26 -78 32 -14 5 -34 12 -45 14
-11 2 -31 7 -45 12 -14 5 -41 12 -60 15 -19 3 -46 9 -60 12 -39 9 -310 12
-360 3z m335 -496 c76 -19 166 -54 207 -80 21 -13 40 -23 43 -23 5 0 36 -25
60 -47 8 -7 16 -13 20 -13 3 0 16 -11 28 -24 12 -13 38 -41 57 -62 54 -59 140
-211 140 -247 0 -7 5 -18 12 -25 7 -7 9 -12 5 -12 -3 0 -2 -11 3 -25 21 -54
28 -205 14 -300 -12 -86 -59 -221 -89 -255 -8 -8 -15 -19 -16 -25 -5 -27 -176
-215 -194 -215 -3 0 -27 -16 -55 -36 -27 -20 -50 -33 -50 -30 0 3 -17 -3 -37
-14 -21 -11 -41 -20 -45 -20 -4 0 -19 -5 -35 -11 -15 -7 -35 -13 -43 -14 -8
-1 -35 -6 -60 -10 -70 -14 -210 -12 -265 2 -27 7 -51 13 -51 13 -1 0 -9 -21
-18 -47 -10 -27 -20 -55 -23 -63 -4 -8 -7 -17 -8 -20 0 -3 -9 -30 -19 -60 -24
-76 -25 -80 -26 -85 0 -3 -7 -19 -15 -35 -9 -17 -13 -30 -10 -30 3 0 0 -10 -7
-22 -6 -13 -13 -27 -14 -33 -2 -12 -97 -289 -144 -420 -17 -49 -33 -97 -35
-105 -2 -8 -12 -37 -23 -65 -11 -27 -21 -54 -22 -60 -4 -18 -8 -29 -35 -105
-75 -216 -116 -343 -111 -347 3 -3 51 2 108 11 57 10 114 19 128 21 14 2 41 7
60 11 19 4 46 8 60 9 14 1 25 3 25 4 0 1 14 4 30 6 47 6 98 14 120 19 11 2 40
7 65 10 25 3 56 8 70 11 71 14 72 14 66 -1 -3 -9 -54 -95 -113 -192 -122 -199
-113 -185 -172 -283 -24 -41 -47 -76 -50 -79 -4 -3 -12 -16 -19 -30 -7 -14
-21 -38 -32 -55 -11 -16 -27 -43 -36 -60 -9 -16 -20 -32 -23 -35 -3 -3 -15
-22 -25 -42 -11 -21 -23 -38 -28 -38 -4 0 -8 -6 -8 -12 0 -7 -20 -43 -44 -80
-24 -37 -41 -69 -38 -72 3 -3 0 -6 -6 -6 -7 0 -12 -5 -12 -11 0 -7 -15 -32
-33 -58 -18 -25 -43 -66 -56 -91 -13 -25 -26 -47 -30 -50 -4 -3 -30 -43 -58
-90 -111 -186 -245 -406 -256 -419 -9 -11 -5 -12 23 -8 19 3 53 11 75 17 22 6
51 13 65 16 14 2 32 7 40 10 8 3 26 8 40 10 14 3 52 12 85 21 33 8 67 16 75
18 8 2 80 20 160 40 80 20 152 37 160 37 8 1 21 5 28 11 6 5 12 7 12 4 0 -3
15 -1 33 4 17 6 42 12 54 13 21 3 21 1 -8 -33 -17 -20 -44 -51 -60 -68 -16
-18 -29 -37 -29 -43 0 -5 -3 -10 -7 -10 -5 0 -28 -25 -53 -56 -25 -31 -52 -63
-61 -73 -8 -9 -39 -44 -67 -78 -73 -89 -74 -91 -104 -124 -16 -16 -28 -34 -28
-39 0 -4 -4 -10 -8 -12 -4 -1 -55 -59 -112 -128 -57 -69 -108 -129 -114 -135
-6 -5 -54 -62 -105 -125 -52 -63 -99 -120 -105 -125 -6 -6 -31 -35 -55 -65
-25 -30 -51 -62 -58 -70 -7 -8 -30 -35 -51 -60 -20 -24 -45 -52 -54 -62 -10
-10 -18 -20 -18 -23 0 -3 -8 -13 -17 -23 -10 -10 -34 -38 -53 -62 -19 -24 -42
-51 -50 -60 -8 -8 -35 -40 -59 -70 -25 -30 -49 -59 -55 -65 -6 -5 -38 -44 -71
-85 -33 -41 -67 -82 -76 -90 -9 -8 -35 -40 -59 -70 -24 -30 -51 -62 -59 -70
-9 -8 -23 -25 -31 -36 -8 -12 -36 -45 -61 -75 -26 -30 -66 -76 -89 -104 -23
-27 -58 -69 -78 -93 -20 -24 -39 -47 -42 -51 -5 -9 -80 -97 -117 -138 -11 -13
-36 -43 -55 -66 -18 -22 -41 -49 -50 -59 -10 -10 -18 -20 -18 -23 0 -3 -10
-16 -22 -29 -13 -13 -36 -40 -53 -60 -16 -21 -39 -48 -50 -60 -51 -58 -65 -77
-65 -86 0 -6 -6 -10 -13 -10 -8 0 -19 -11 -25 -25 -6 -14 -16 -25 -22 -25 -5
0 -10 -4 -10 -10 0 -5 -11 -21 -24 -36 -40 -44 -59 -66 -111 -129 -27 -33 -59
-71 -70 -84 -11 -14 -27 -32 -35 -41 -8 -9 -44 -52 -80 -95 -35 -44 -69 -85
-75 -91 -10 -11 -75 -88 -107 -128 -10 -11 -24 -28 -31 -36 -29 -32 -27 -40
18 -87 25 -26 48 -56 51 -65 3 -10 9 -18 13 -18 10 0 77 -146 95 -210 43 -150
38 -324 -15 -470 -25 -66 -90 -190 -101 -190 -4 0 -8 -5 -8 -11 0 -16 -119
-133 -175 -171 -54 -37 -172 -95 -208 -102 -12 -3 -33 -8 -47 -11 -70 -15 -92
-18 -170 -19 -197 -5 -392 72 -535 210 -116 112 -183 233 -221 399 -10 45 -13
268 -4 280 5 6 8 12 8 15 -1 3 5 30 12 60 22 91 74 195 135 269 30 37 114 121
120 121 3 0 16 9 28 21 30 29 162 94 228 113 137 39 288 41 422 5 23 -6 42
-10 43 -8 0 2 8 -2 17 -9 15 -12 19 -8 40 40 14 29 36 79 51 111 14 31 38 83
52 115 62 134 83 181 111 242 17 36 40 88 53 115 12 28 37 82 56 120 30 64 56
123 59 135 0 3 7 16 15 30 8 14 15 27 15 30 0 3 10 25 22 50 12 25 32 70 46
100 26 58 104 228 192 420 85 185 95 208 95 219 0 5 3 11 8 13 11 5 44 80 37
86 -3 3 -51 -8 -108 -23 -56 -16 -107 -30 -113 -31 -6 -1 -38 -10 -70 -19 -33
-10 -66 -19 -74 -20 -8 -2 -15 -4 -15 -5 0 -1 -9 -3 -20 -5 -11 -2 -58 -15
-105 -28 -47 -13 -123 -34 -170 -46 -47 -13 -95 -27 -107 -32 -18 -6 -23 -5
-23 6 0 8 3 15 8 15 4 0 23 25 42 55 19 30 38 55 43 55 4 0 7 6 7 13 0 7 13
28 30 47 16 19 29 39 30 43 0 5 6 15 13 22 6 8 23 30 37 50 14 20 40 56 58 81
17 24 32 48 32 53 0 5 4 11 8 13 5 1 28 32 52 68 24 36 48 70 52 75 5 6 44 62
88 125 44 63 83 120 87 125 4 6 30 42 56 80 26 39 75 108 108 155 33 47 68 96
77 110 9 14 39 57 67 96 27 38 55 77 60 86 25 39 170 244 182 256 7 7 13 17
13 21 0 4 11 21 25 37 14 16 25 33 25 37 0 4 6 15 13 23 6 8 17 20 22 27 6 7
29 40 53 75 40 57 41 62 20 58 -13 -3 -24 -5 -25 -7 -3 -2 2 -1 -98 -24 -44
-11 -82 -20 -85 -20 -3 -1 -23 -5 -45 -10 -56 -13 -55 -12 -57 -15 -2 -1 -10
-3 -18 -5 -99 -22 -199 -45 -211 -49 -8 -3 -25 -8 -39 -10 -14 -3 -45 -11 -70
-17 -25 -6 -54 -13 -65 -15 -11 -2 -32 -7 -47 -10 -32 -7 -36 4 -10 32 15 17
85 109 137 180 11 15 25 32 30 39 6 6 15 18 20 27 6 8 57 78 115 154 58 77
107 143 109 148 2 5 14 19 27 31 13 12 21 25 17 28 -3 4 2 9 11 13 9 3 16 12
16 19 0 7 4 15 8 17 4 2 49 59 100 128 51 69 101 135 112 146 11 12 20 26 20
32 0 6 4 12 8 14 5 2 28 30 52 63 24 33 50 66 57 73 7 7 13 17 13 20 0 4 10
19 23 32 12 14 33 41 47 60 13 19 28 40 32 45 5 6 62 82 128 170 66 88 127
168 135 178 8 9 15 20 15 24 0 3 7 13 15 22 35 38 105 131 98 131 -5 0 -3 4 4
8 9 5 178 226 288 376 11 15 66 89 123 164 57 75 111 147 120 160 9 13 63 84
120 158 56 74 102 139 102 144 0 4 4 10 8 12 8 3 87 104 107 137 6 9 12 18 15
21 3 3 21 24 39 48 l34 43 -40 37 c-87 83 -189 255 -208 357 -5 22 -10 47 -13
55 -2 8 -5 67 -7 130 -3 132 14 216 66 327 52 111 127 206 231 290 70 57 231
127 318 139 25 3 47 8 49 10 9 8 211 -1 256 -13z"/>
</g>
</svg>
